<svg width="289" height="73" viewBox="0 0 289 73" fill="none" xmlns="http://www.w3.org/2000/svg">
<path d="M128.827 29.5845L120.915 57.9067H114.219L108.904 37.7403L103.345 57.9067L96.6905 57.9473L89.0621 29.5845H95.1486L100.139 51.5768L105.901 29.5845H112.231L117.668 51.4551L122.7 29.5845H128.827ZM135.417 32.7495C134.416 32.7495 133.578 32.4384 132.901 31.8162C132.252 31.167 131.927 30.369 131.927 29.4222C131.927 28.4754 132.252 27.6909 132.901 27.0688C133.578 26.4196 134.416 26.0949 135.417 26.0949C136.418 26.0949 137.243 26.4196 137.892 27.0688C138.568 27.6909 138.907 28.4754 138.907 29.4222C138.907 30.369 138.568 31.167 137.892 31.8162C137.243 32.4384 136.418 32.7495 135.417 32.7495ZM138.217 35.4275V57.9067H132.536V35.4275H138.217ZM156.246 57.9067L151.62 50.9276L147.522 57.9067H141.435L148.78 46.6265L141.354 35.4275H147.765L152.35 42.366L156.489 35.4275H162.576L155.191 46.6265L162.657 57.9067H156.246Z" fill="white"/>
<path d="M181.81 43.3804C183.406 43.678 184.718 44.476 185.746 45.7744C186.774 47.0729 187.288 48.5607 187.288 50.2378C187.288 51.7527 186.909 53.0917 186.152 54.2549C185.422 55.391 184.353 56.2837 182.946 56.9329C181.54 57.5821 179.876 57.9067 177.956 57.9067H165.742V29.5845H177.428C179.349 29.5845 180.999 29.8956 182.378 30.5178C183.785 31.1399 184.84 32.0056 185.543 33.1146C186.274 34.2237 186.639 35.4816 186.639 36.8882C186.639 38.5383 186.193 39.9179 185.3 41.027C184.434 42.1361 183.271 42.9206 181.81 43.3804ZM171.423 41.2705H176.617C177.969 41.2705 179.011 40.9729 179.741 40.3778C180.471 39.7556 180.836 38.8765 180.836 37.7403C180.836 36.6042 180.471 35.725 179.741 35.1029C179.011 34.4807 177.969 34.1696 176.617 34.1696H171.423V41.2705ZM177.144 53.281C178.524 53.281 179.592 52.9564 180.35 52.3072C181.134 51.658 181.526 50.7383 181.526 49.548C181.526 48.3307 181.121 47.384 180.309 46.7077C179.497 46.0044 178.402 45.6527 177.022 45.6527H171.423V53.281H177.144ZM190.355 46.586C190.355 44.3137 190.801 42.2984 191.694 40.5401C192.614 38.7818 193.844 37.4292 195.386 36.4825C196.955 35.5357 198.7 35.0623 200.621 35.0623C202.298 35.0623 203.758 35.4004 205.003 36.0767C206.274 36.753 207.289 37.6051 208.046 38.633V35.4275H213.767V57.9067H208.046V54.6201C207.316 55.675 206.301 56.5542 205.003 57.2575C203.731 57.9338 202.257 58.2719 200.58 58.2719C198.686 58.2719 196.955 57.785 195.386 56.8112C193.844 55.8373 192.614 54.4713 191.694 52.713C190.801 50.9276 190.355 48.8853 190.355 46.586ZM208.046 46.6671C208.046 45.2875 207.776 44.1108 207.235 43.137C206.693 42.1361 205.963 41.3787 205.043 40.8647C204.124 40.3237 203.136 40.0532 202.081 40.0532C201.026 40.0532 200.053 40.3102 199.16 40.8241C198.267 41.3381 197.537 42.0955 196.969 43.0964C196.428 44.0702 196.157 45.2334 196.157 46.586C196.157 47.9385 196.428 49.1287 196.969 50.1567C197.537 51.1576 198.267 51.9285 199.16 52.4695C200.08 53.0105 201.053 53.281 202.081 53.281C203.136 53.281 204.124 53.0241 205.043 52.5101C205.963 51.9691 206.693 51.2117 207.235 50.2378C207.776 49.2369 208.046 48.0467 208.046 46.6671ZM231.772 35.1029C234.45 35.1029 236.614 35.955 238.265 37.6592C239.915 39.3363 240.74 41.6898 240.74 44.7194V57.9067H235.059V45.4904C235.059 43.705 234.613 42.339 233.72 41.3922C232.827 40.4184 231.61 39.9314 230.068 39.9314C228.499 39.9314 227.255 40.4184 226.335 41.3922C225.442 42.339 224.996 43.705 224.996 45.4904V57.9067H219.315V35.4275H224.996V38.2272C225.754 37.2534 226.714 36.496 227.877 35.955C229.067 35.3869 230.366 35.1029 231.772 35.1029ZM259.451 57.9067L251.822 48.3307V57.9067H246.142V27.8803H251.822V44.9629L259.37 35.4275H266.755L256.854 46.7077L266.836 57.9067H259.451Z" fill="#5CE1E6"/>
<path d="M39.1864 0C31.4361 -8.50666e-08 23.8598 2.11534 17.4156 6.07852C10.9714 10.0417 5.94882 15.6747 2.98289 22.2652C0.0169625 28.8558 -0.759061 36.1078 0.752955 43.1043C2.26497 50.1007 5.99712 56.5274 11.4774 61.5716C16.9578 66.6157 23.9401 70.0509 31.5415 71.4426C39.143 72.8342 47.022 72.12 54.1824 69.3901C61.3428 66.6602 67.4629 62.0373 71.7688 56.106C76.0746 50.1747 78.3729 43.2013 78.3729 36.0678L58.7797 36.0678C58.7797 39.6346 57.6305 43.1212 55.4776 46.0869C53.3247 49.0526 50.2646 51.364 46.6844 52.7289C43.1042 54.0939 39.1647 54.451 35.364 53.7552C31.5633 53.0593 28.0721 51.3418 25.3319 48.8197C22.5918 46.2976 20.7257 43.0843 19.9697 39.586C19.2137 36.0878 19.6017 32.4618 21.0847 29.1665C22.5676 25.8713 25.0789 23.0547 28.301 21.0732C31.5231 19.0916 35.3113 18.0339 39.1864 18.0339L39.1864 0Z" fill="white"/>
<path d="M39.1864 0C34.0404 -5.64821e-08 28.9448 0.932921 24.1904 2.7455C19.4361 4.55807 15.1162 7.21481 11.4774 10.564C7.83864 13.9132 4.95219 17.8893 2.98289 22.2653C1.01359 26.6412 -7.7703e-07 31.3313 0 36.0678L19.5932 36.0678C19.5932 33.6996 20.1 31.3545 21.0847 29.1665C22.0693 26.9785 23.5125 24.9905 25.3319 23.3159C27.1513 21.6413 29.3113 20.3129 31.6884 19.4066C34.0656 18.5004 36.6134 18.0339 39.1864 18.0339L39.1864 0Z" fill="#5CE1E6"/>
<ellipse cx="39.1864" cy="36.0678" rx="12.2458" ry="11.2712" fill="#5CE1E6"/>
<path d="M51.4322 36.0678C51.4322 34.5877 51.1155 33.122 50.5 31.7545C49.8846 30.387 48.9826 29.1445 47.8455 28.0979C46.7084 27.0513 45.3584 26.221 43.8727 25.6546C42.387 25.0882 40.7946 24.7966 39.1864 24.7966C37.5783 24.7966 35.9859 25.0882 34.5002 25.6546C33.0145 26.221 31.6645 27.0513 30.5274 28.0979C29.3902 29.1445 28.4882 30.387 27.8728 31.7545C27.2574 33.122 26.9407 34.5877 26.9407 36.0678L39.1864 36.0678H51.4322Z" fill="white"/>
</svg>
